<svg id="Layer_1" data-name="Layer 1" xmlns="http://www.w3.org/2000/svg" xmlns:xlink="http://www.w3.org/1999/xlink" viewBox="0 0 550.96 585.6"><defs><clipPath id="clip-path" transform="translate(-10.61 -5.13)"><path d="M97.85,134.14c-21.7,31.26-43.76,63.29-53.31,99.59-10.79,41-4.75,84.11,1.35,126,4.39,30.2,9,61.13,24.23,88,19.95,35.27,56.51,60,95.81,74.69s81.61,20.19,123.5,25.2c27.88,3.33,57.05,6.34,83.36-3,32.8-11.68,55.15-40.44,72.41-69.34a477.11,477.11,0,0,0,64.15-186.6c4.86-40,4.13-82.23-15-118.16-17.5-32.85-48.53-57.11-79.27-79.6C363.65,53.27,303.58,21,236.38,21.8,174.14,22.58,128,90.69,97.85,134.14Z" fill="none"/></clipPath><linearGradient id="linear-gradient" x1="379.51" y1="212.39" x2="196.15" y2="280.87" gradientUnits="userSpaceOnUse"><stop offset="0.01"/><stop offset="0.13" stop-opacity="0.69"/><stop offset="1" stop-opacity="0"/></linearGradient><linearGradient id="linear-gradient-2" x1="314.12" y1="425.67" x2="180.9" y2="125.91" xlink:href="#linear-gradient"/><linearGradient id="linear-gradient-3" x1="121.58" y1="474.42" x2="207.04" y2="-87.98" xlink:href="#linear-gradient"/><linearGradient id="linear-gradient-4" x1="14.58" y1="329.62" x2="244.43" y2="172.51" xlink:href="#linear-gradient"/><linearGradient id="linear-gradient-5" x1="292.65" y1="240.6" x2="1017.91" y2="508.06" xlink:href="#linear-gradient"/><linearGradient id="linear-gradient-6" x1="290.89" y1="467.12" x2="540.56" y2="256.24" xlink:href="#linear-gradient"/><linearGradient id="linear-gradient-7" x1="10.59" y1="242.36" x2="237.01" y2="679.53" xlink:href="#linear-gradient"/><linearGradient id="linear-gradient-8" x1="236.97" y1="448.49" x2="-183.6" y2="312.36" xlink:href="#linear-gradient"/><linearGradient id="linear-gradient-9" x1="-6.06" y1="367.76" x2="846.92" y2="700.47" xlink:href="#linear-gradient"/><linearGradient id="linear-gradient-10" x1="412.8" y1="482.14" x2="416.03" y2="495.99" xlink:href="#linear-gradient"/><linearGradient id="linear-gradient-11" x1="138.81" y1="322.48" x2="589.58" y2="683.38" xlink:href="#linear-gradient"/><linearGradient id="linear-gradient-12" x1="266.66" y1="276.94" x2="270.04" y2="326.52" xlink:href="#linear-gradient"/><linearGradient id="linear-gradient-13" x1="-44.2" y1="401.97" x2="450.67" y2="509.29" xlink:href="#linear-gradient"/><linearGradient id="linear-gradient-14" x1="116.34" y1="123.53" x2="246.52" y2="123.53" gradientUnits="userSpaceOnUse"><stop offset="0.02" stop-color="#fff" stop-opacity="0"/><stop offset="0.58" stop-color="#fff" stop-opacity="0.39"/><stop offset="0.68" stop-color="#fff" stop-opacity="0.68"/><stop offset="1" stop-color="#fff"/></linearGradient><linearGradient id="linear-gradient-15" x1="356.64" y1="146" x2="321.46" y2="92.51" xlink:href="#linear-gradient-14"/><linearGradient id="linear-gradient-16" x1="323.25" y1="217.19" x2="333.98" y2="140.98" xlink:href="#linear-gradient-14"/><linearGradient id="linear-gradient-17" x1="264.37" y1="236.58" x2="269.25" y2="211.92" xlink:href="#linear-gradient"/><linearGradient id="linear-gradient-18" x1="267.37" y1="240.52" x2="266.89" y2="337.89" xlink:href="#linear-gradient"/><linearGradient id="linear-gradient-19" x1="252.82" y1="245.38" x2="277.74" y2="248.54" xlink:href="#linear-gradient"/><linearGradient id="linear-gradient-20" x1="254.33" y1="258.94" x2="257.81" y2="258.94" xlink:href="#linear-gradient"/><linearGradient id="linear-gradient-21" x1="274.34" y1="255.16" x2="278.06" y2="255.16" xlink:href="#linear-gradient"/><linearGradient id="linear-gradient-22" x1="284.44" y1="239.49" x2="246.4" y2="247.95" xlink:href="#linear-gradient"/><linearGradient id="linear-gradient-23" x1="267.3" y1="243.66" x2="276.29" y2="360.54" xlink:href="#linear-gradient"/><linearGradient id="linear-gradient-24" x1="266.06" y1="228.69" x2="265.82" y2="274.42" xlink:href="#linear-gradient"/><linearGradient id="linear-gradient-25" x1="264.91" y1="273.89" x2="265.5" y2="318.66" xlink:href="#linear-gradient"/><linearGradient id="linear-gradient-26" x1="271.17" y1="273.81" x2="271.76" y2="318.59" xlink:href="#linear-gradient"/></defs><title>Peak Mountain 2</title><g clip-path="url(#clip-path)"><rect width="541.6" height="370.1" fill="#6872fd" opacity="0.42" style="isolation:isolate"/><path d="M277.94,240.19a11.69,11.69,0,0,1-2.63-1.69c-6.66-5.77-2.24-16.12-3.11-24.63-.51-5-3-9.6-5.46-14.05-18.41-33.4-30.51-68-51.46-100.61-5.31-8.27-13.17-17.8-25.15-17.5-8.29.2-14.86,5.23-20.47,9.94C157,102.32,144.35,113.15,133.6,125c-16,17.65-27.62,37.34-39.19,56.92L56.82,245.57c-3.66,6.21-7.35,12.46-9.39,19.09-3,9.81-2.33,20-1.62,30.13.68,9.68,1.38,19.45,4.67,28.81,7.05,20.07,25.23,36.51,42.89,52.22,3.11,2.76,6.4,5.62,10.82,6.94,5.81,1.73,12.31.46,18.31-.82l35.85-7.68c30.91-6.61,62.48-13.47,88.79-27.62,19.07-10.25,46.18.86,66.77-1.37,22.78-2.47,31.62-28.39,20.35-46.48-7-11.3-18.33-19.69-26.06-30.57-6.49-9.14-11.19-20.66-21.86-25C283.61,242.06,280.56,241.46,277.94,240.19Z" transform="translate(-10.61 -5.13)" fill="#6872fd"/><path d="M276.78,248.12a59.9,59.9,0,0,1-6.92-7.87c-2.88-4.16-4.64-8.91-6.38-13.6l-20.15-54.39a207.2,207.2,0,0,1,11.47,60.66c.25,6.7.2,13.59,2.78,19.83,3.84,9.31,12.81,15.68,21.36,21.53a68.17,68.17,0,0,0,7.94,4.92,42.94,42.94,0,0,1,6.58,3.47c4,3,5.78,7.8,7.8,12.21A79.57,79.57,0,0,0,324.31,324c3.15-4.78,13.67-15.5,12.68-21.35-.94-5.52-15.42-13.66-19.84-17.38Q296.12,267.56,276.78,248.12Z" transform="translate(-10.61 -5.13)" opacity="0.58" fill="url(#linear-gradient)"/><path d="M293.1,299.42c-6.75-8.25-14.68-17.16-25.63-18.39l3.35,9.17c-9.33-8.27-18-18-21-29.76-2-7.84-1.25-16-1.67-24.09-1.69-31.81-21-60-39.69-86.5-3.72,13.25,3.66,26.69,8.79,39.51a130.36,130.36,0,0,1,9.26,47.3A49.34,49.34,0,0,1,211.68,215l-5.87,12.36c-6.62-6.43-8.14-16-9.31-24.94l-8.72-66a199,199,0,0,0-8,61.07,46.17,46.17,0,0,0,1.75,13c4.22,13,18.26,21.88,21.07,35.22,1.21,5.72.18,11.72,1.52,17.42.95,4,3,7.71,4.74,11.51,7.33,16.36,7.57,35.14,16,51a7.67,7.67,0,0,0,2.78,3.33,8.93,8.93,0,0,0,3.41.85l13.86,1.59a104.42,104.42,0,0,1-5.76-19.76,13.86,13.86,0,0,1,13.26,5.71c1.43,2.15,2.15,4.67,3.63,6.78s4.19,3.83,6.75,3.06a16.6,16.6,0,0,0,3.36-1.93c4.91-2.85,11.56-.28,15.38,3.81s5.82,9.39,8.93,14,8.13,8.8,13.88,8.35c6.18-7.83,15.49-16.83,10.13-25.9C309.05,316.32,300,307.81,293.1,299.42Z" transform="translate(-10.61 -5.13)" opacity="0.58" fill="url(#linear-gradient-2)"/><path d="M242.79,387.66c-6.37,18.19-21.62,33.55-40.67,44.29-25.11,14.14-22.4-58.63-51.91-52L116,387.61c-5.72,1.28-11.94,2.55-17.48.83-4.22-1.32-7.36-4.19-10.32-6.95C71.33,365.78,54,349.33,47.25,329.28c-3.14-9.36-3.8-19.13-4.47-28.81-.31-4.74-.63-9.52-.57-14.25a57.8,57.8,0,0,1,2.13-15.89c1.95-6.63,5.46-12.88,9-19.08q17.93-31.83,35.88-63.62C98,172,106.81,156.38,117.73,141.75c2.81-3.75,5.74-7.44,8.85-11,10.27-11.9,22.29-22.73,34.43-33.4,5.36-4.71,11.62-9.74,19.53-9.94,11.44-.3-13.91,88.87-8.83,97.14,13.64,22.26,27.39,44.78,34.19,69,7.67,27.31,6.39,56.47,20.17,82.18C236.06,354.37,250.09,366.82,242.79,387.66Z" transform="translate(-10.61 -5.13)" opacity="0.58" fill="url(#linear-gradient-3)"/><path d="M161,355l-21.6-14.63c-20.58,2.34-39.23-10.93-54.32-24.39-13-11.56-26.32-24.41-42.82-29.72a57.8,57.8,0,0,1,2.13-15.89c1.95-6.63,5.46-12.88,9-19.08q17.93-31.83,35.88-63.62C98,172,106.81,156.38,117.73,141.75c8.17-8.37,16.48-16.57,24.71-24.62A6.35,6.35,0,0,1,146,115c2.38-.24,4.13,2,5.1,4.14,8.44,18.19-1.19,38.77-5.86,58.14a115.67,115.67,0,0,0,6.71,73.42c3.18,7.19,7.18,14.41,7.2,22.2,0,6.09-2.4,11.9-4.17,17.75A86.68,86.68,0,0,0,161,355Z" transform="translate(-10.61 -5.13)" opacity="0.58" fill="url(#linear-gradient-4)"/><path d="M367.51,217.68a723.54,723.54,0,0,0,40.16-98.22c1.1-3.35,2.29-6.9,5.08-9.2,3.67-3,13.89-46.2,18.64-45.22,22.13,4.56,58.29-1.1,68.45,18.08,7.73,14.58,33.79,83.25,41.52,97.84,3.79,7.15,9,54,11.22,61.68,2.6,9.16,2.7,39.45,2.25,48.93-1.46,30.6,2.5,42.94-1.13,73.38-1.89,15.87-22.3,33.3-25.81,48.92-3.69,16.45-50.91,3.95-57,19.76a431.52,431.52,0,0,0-21.82,76.89c-.37,2-.87,4.31-2.68,5.47-2.92,1.87-6.74-.45-9.36-2.68A732.29,732.29,0,0,1,331.33,402.72c-8.22-10.66-16.25-21.73-20.52-34.3-4.05-11.93-6.7-28.6-4.32-41.07,2.2-11.48,12.54-23.19,18.59-33.31C340,269,354.56,243.71,367.51,217.68Z" transform="translate(-10.61 -5.13)" fill="#6872fd"/><path d="M367.51,217.68a723.54,723.54,0,0,0,40.16-98.22c1.1-3.35,2.29-6.9,5.08-9.2,3.67-3,11.65-39.82,16.4-38.84C451.28,76,451.53,81,461.69,100.13c7.73,14.59,39.4,16.26,47.13,30.84,3.79,7.15,19.12,50.78,21.32,58.5,2.6,9.15,31.87,51.15,31.42,60.62-1.46,30.6-32.28,75.91-35.91,106.35-1.89,15.87-34.58,13.68-38.09,29.31-3.69,16.45-10.58,32.07-16.63,47.88a431.52,431.52,0,0,0-21.82,76.89c-.37,2-.87,4.31-2.68,5.47-2.92,1.87-6.74-.45-9.36-2.68A732.29,732.29,0,0,1,331.33,402.72c-8.22-10.66-16.25-21.73-20.52-34.3-4.05-11.93-6.7-28.6-4.32-41.07,2.2-11.48,12.54-23.19,18.59-33.31C340,269,354.56,243.71,367.51,217.68Z" transform="translate(-10.61 -5.13)" opacity="0.58" fill="url(#linear-gradient-5)"/><path d="M353.22,246.9c.13,32.77,15,63.18.57,93-1.74,3.57-3.61,7.5-2.54,11.3,1.24,4.37,5.85,6.91,9.41,9.91a27.5,27.5,0,0,1,9.76,19.29,182.23,182.23,0,0,1,31.57-45c5,19.56-16.95,38.67-11.85,58.21,2.25,8.62,9.36,15.21,16.16,21.31L436,441.54a50,50,0,0,1,20.56-16c11.52,29-5.79,60.52-22.54,87.16-1.15,1.83-2.47,3.79-4.61,4.46-3.73,1.16-7.18-2.21-9.52-5.2l-59.09-75.8c-18-23.13-43.09-49-53.18-76.54C291.14,314.74,341.25,276.68,353.22,246.9Z" transform="translate(-10.61 -5.13)" opacity="0.58" fill="url(#linear-gradient-6)"/><path d="M54.57,272.66a11.63,11.63,0,0,0,5.4.17,11.17,11.17,0,0,0,3.89-2.44l15.75-13.27c1.06-.89,2.3-1.83,3.7-1.68A4.52,4.52,0,0,1,86,257.07C91.54,263,92.71,272,98.79,277.45c6.88,6.2,19.18,7.25,22.39,15.71,1,2.64.85,5.53.93,8.34.41,13.57,6.8,26.5,15.5,37.29s19.66,19.73,30.52,28.58c-2.31,25.72-22.66,46.44-43.16,63.45-19.59,16.24-40.66,31.33-64.56,41.1-6.54,2.67-13.38,5-19,9.14l.35-44.19c.22-27.75.44-55.51.22-83.27-.21-27-4.81-56.29-2-83.05C44.47,270,50,271.78,54.57,272.66Z" transform="translate(-10.61 -5.13)" fill="#6872fd"/><path d="M54.57,272.66a11.63,11.63,0,0,0,5.4.17,11.17,11.17,0,0,0,3.89-2.44l15.75-13.27c1.06-.89,2.3-1.83,3.7-1.68A4.52,4.52,0,0,1,86,257.07C91.54,263,92.71,272,98.79,277.45c6.88,6.2,19.18,7.25,22.39,15.71,1,2.64.85,5.53.93,8.34.41,13.57,6.8,26.5,15.5,37.29s19.66,19.73,30.52,28.58c-2.31,25.72-22.66,46.44-43.16,63.45-19.59,16.24-40.66,31.33-64.56,41.1-6.54,2.67-13.38,5-19,9.14l.35-44.19c.22-27.75.44-55.51.22-83.27-.21-27-4.81-56.29-2-83.05C44.47,270,50,271.78,54.57,272.66Z" transform="translate(-10.61 -5.13)" opacity="0.58" fill="url(#linear-gradient-7)"/><path d="M119.39,325.27A85.25,85.25,0,0,0,128,363.8c-3.07,1.17-6.63-.87-8.2-3.62s-1.71-6-2-9.11c-2.23-25.73-16.79-50.27-38.83-65.44-3.15,3.48-2.08,9.59,2.09,11.91l-13.22-9.46-4.53,5.86-15.52-6.51a196.1,196.1,0,0,0-1.25,36.25,6.38,6.38,0,0,0,1,3.68c2.9,3.65,8.48-1,13.17-2,6.45-1.43,12.2,7.31,8,12.17-.83-5.34-8.28-8.56-13.08-5.67-4.26,2.58-5.26,8-5.84,12.73a1260.69,1260.69,0,0,0-9,152.16,428,428,0,0,0,93.26-82.06c10.89-12.87,22.34-25.77,12.22-41.27C138.16,360.92,119.16,340.86,119.39,325.27Z" transform="translate(-10.61 -5.13)" opacity="0.58" fill="url(#linear-gradient-8)"/><path d="M440.16,508.52s-112.21-134-129-169.1-42.64-48.92-42.64-48.92,13.47-19.14-26.93,6.38-77.42,56.37-77.42,56.37L117,414.93l-78.55,70.2s-6.73,90.4,19.08,98.9,378.15,3.9,378.15,3.9Z" transform="translate(-10.61 -5.13)" fill="#6872fd"/><path d="M440.16,508.52,439,528.63l-3.35,59.3s-16.13.21-41.74.46l-12.22.1c-.8,0-1.6,0-2.41,0l-19.84.16c-16.78.14-35.43.26-55,.36-19.88.08-40.71.15-61.48.13-87,0-173.18-1.09-185.45-5.13-25.81-8.51-19.08-98.92-19.08-98.92l5.09-4.54L117,414.93l7.32-9.58,32.12-42,7.69-10.07s37-30.84,77.42-56.37,26.93-6.37,26.93-6.37,25.81,13.82,42.64,48.91S440.16,508.52,440.16,508.52Z" transform="translate(-10.61 -5.13)" opacity="0.58" fill="url(#linear-gradient-9)"/><path d="M412,483.88a38.06,38.06,0,0,1,4.45,9.05A50.64,50.64,0,0,1,412,483.88Z" transform="translate(-10.61 -5.13)" opacity="0.58" fill="url(#linear-gradient-10)"/><path d="M439,528.63l-3.35,59.3s-16.13.21-41.74.46c-.09-6,.68-12.07.34-18.1C392.83,544,371.49,523.43,358,500.2q7.86,19.19,15.75,38.38c2.56,6.26,5.15,12.61,5.8,19.29,1,10.27-2.42,21.6,2.13,30.62a17.54,17.54,0,0,0,1.31,2.23c-1.29-.68-2.52-1.42-3.72-2.2-17.65-11.48-25.76-32.8-32.49-52.44q6.31,26.31,12.65,52.6c-16.78.14-35.43.26-55,.36-2.52-21.4-3.18-44.27-3.18-65.58-2.4-45-4.82-90.05-11.76-134.6A813,813,0,0,0,268,292.23c10,6.2,15.49,17.08,19.41,27.75,2.91,8,5.21,16.13,7.49,24.28q4,14.28,8,28.54,13.13,46.65,26.21,93.31c3.06-18.27-2.65-36.71-8.28-54.42q-11.55-36.19-23.08-72.39A248.16,248.16,0,0,1,330.92,395l-11.4-27.37c22.88,24.06,21,60.65,33.29,90.84,8.08,19.74,22.48,36.86,39.83,50.2q-23.52-53.38-47-106.78a422.12,422.12,0,0,1,67,124.3,39.14,39.14,0,0,0,3.92-33.22c6.94,11.46,17.42,21.32,21.93,33.88C438.63,527.42,438.83,528,439,528.63Z" transform="translate(-10.61 -5.13)" opacity="0.58" fill="url(#linear-gradient-11)"/><path d="M253.46,293.22c-.54.69-.89,1.93,0,2.22a1.53,1.53,0,0,0,.92-.06,34.85,34.85,0,0,0,4.34-1.52c1.16-.49,2.47-1.06,3.64-.59,2.06.83,1.84,4.05,3.82,5,1.26.62,2.77,0,4-.55a25.55,25.55,0,0,0,6.75,7.12,5.2,5.2,0,0,0,3.21,1.25c2.27-.13,3.47-2.79,3.1-4.91s-1.72-4-2.37-6c-.53-1.71-.6-3.6-1.6-5.11-1.39-2.09-4.17-2.88-6.74-3.31-3.2-.53-7.62-1.41-10.75-.26S255.48,290.62,253.46,293.22Z" transform="translate(-10.61 -5.13)" fill="url(#linear-gradient-12)"/><path d="M254.62,577.29A56.2,56.2,0,0,1,243,589.17c-87,0-173.18-1.09-185.45-5.13-25.81-8.51-19.08-98.92-19.08-98.92l5.09-4.54c24.6-18.71,49.92-36.83,69.38-60.25,4-4.83,7.76-9.87,11.4-15,7.12-10,13.86-20.26,21.55-29.88q5-6.29,10.57-12.15a210.62,210.62,0,0,1,95-57.32c11,40.15-11.89,81.5-12.18,123C239,471.22,281.93,538.85,254.62,577.29Z" transform="translate(-10.61 -5.13)" opacity="0.58" fill="url(#linear-gradient-13)"/><path d="M116.34,151.26l14.69-9.5c7.18-4.64,15.15-10.67,15-18.9a18.47,18.47,0,0,1-2.88,17,10.19,10.19,0,0,0,6.48-3.2,23.44,23.44,0,0,1-.67,9.5,39.44,39.44,0,0,0-13.42,4.11,12.06,12.06,0,0,1,.24,7.91c7.46,1.46,17,2.15,21-4,2.63-4.05,1.55-9.54,4.17-13.6q1.59,9.12,3.17,18.25a47.13,47.13,0,0,1,12.71-11.34,11,11,0,0,0,9.16,9.14,11.46,11.46,0,0,0,11.73-6L212.6,166c2.81-4.16-2.86-10.21,0-14.33s9.35-1.15,13.22,2l6-6.07c2.12,2.11,4.6,4.15,7.63,4.64s6.64-1.25,7-4.15c.24-1.94-1-3.75-2.09-5.37q-17.18-24.42-34.33-48.85c-2.32-3.29-4.71-6.66-8.14-8.91C169.13,63.38,134,139.86,116.34,151.26Z" transform="translate(-10.61 -5.13)" fill="url(#linear-gradient-14)"/></g><path d="M347.88,98.38c-5.37,4.19-10.17,9.25-16.51,11.94-6.85,2.91-15.43,3.11-22.81,2.44-7.63-.7-14.57-4.76-22.59-3.87-6.94.77-13.86,6-13.63,12.64-6.35-1.24-12.41,5.31-11.45,11.39s7.36,10.51,13.83,10.92c6.23.38,12.21-2.26,18.41-2.84a5.47,5.47,0,0,1,2.61.22c1.57.64,2.19,2.38,3.07,3.76,2.95,4.64,9.42,5.81,15.13,6.1,6.83.34,10.66,1.23,16,4.55s10.31,3.49,16.42,1,11.87-6.36,18.44-6.1c7.45.29,14.34,6,21.62,4.4,1.9-17,31.63-49.19,22-64.35C397.24,72.94,359.18,89.53,347.88,98.38Z" transform="translate(-10.61 -5.13)" fill="url(#linear-gradient-15)"/><path d="M374.89,126.82c-9.19-2.91-19.93-1.56-27.54,4.12s-11.51,15.73-8.89,24.56c-6.83-1.53-13.81-3.08-20.81-2.47s-14.13,3.78-17.52,9.61c-1.95,3.36-3.18,7.92-7.12,8.8-1.79.4-3.64-.15-5.44-.53a29.73,29.73,0,0,0-12.39,0c-3.65.78-7.53,2.69-8.46,6.12s1.72,7.11,5.13,8.69,7.35,1.61,11.14,1.61h42.16a11.06,11.06,0,0,1,5.16.83c1.94,1,3,3.13,4.72,4.45,3.51,2.67,8.63,1.56,12.93.32l17.42-5c5.36-1.54,12-5.28,10.28-10.33-.5-1.45-1.72-2.72-1.7-4.25.05-3,4.14-3.9,7.17-4.69,6.85-1.81,12.28-7.73,13.22-14.41C395.67,144.82,384.17,129.76,374.89,126.82Z" transform="translate(-10.61 -5.13)" fill="url(#linear-gradient-16)"/><path d="M261.29,225.78a4.3,4.3,0,0,0-.86,1.28c-.44,1.19.27,2.45.95,3.53a6.15,6.15,0,0,0,2.7,2.73,5.54,5.54,0,0,0,2,.27,17.77,17.77,0,0,0,4-.49,1.34,1.34,0,0,0,.67-.31,1.37,1.37,0,0,0,.26-.56,30.44,30.44,0,0,0,.9-4.83,4.77,4.77,0,0,0-.09-1.92,5.28,5.28,0,0,0-2.61-2.53c-1.26-.73-3.19-2.4-4.6-1.36C263.37,222.51,262.3,224.6,261.29,225.78Z" transform="translate(-10.61 -5.13)" fill="#6872fd"/><path d="M261.29,225.78a4.3,4.3,0,0,0-.86,1.28c-.44,1.19.27,2.45.95,3.53a6.15,6.15,0,0,0,2.7,2.73,5.54,5.54,0,0,0,2,.27,17.77,17.77,0,0,0,4-.49,1.34,1.34,0,0,0,.67-.31,1.37,1.37,0,0,0,.26-.56,30.44,30.44,0,0,0,.9-4.83,4.77,4.77,0,0,0-.09-1.92,5.28,5.28,0,0,0-2.61-2.53c-1.26-.73-3.19-2.4-4.6-1.36C263.37,222.51,262.3,224.6,261.29,225.78Z" transform="translate(-10.61 -5.13)" fill="url(#linear-gradient-17)"/><path d="M255.89,243.49l-1.75,7.4c-.46,2-.76,4.45.94,5.69a1.85,1.85,0,0,0,2,.19,2.28,2.28,0,0,0,.76-1.67l.54-3.53a25.28,25.28,0,0,1,.94-4.46c.41-1.22,1-2.38,1.45-3.59.58-1.6,2.45-8.4-.77-8.41C257.24,235.11,256.34,241.62,255.89,243.49Z" transform="translate(-10.61 -5.13)" fill="#6872fd"/><path d="M254.66,260.79a2.61,2.61,0,0,0,.68,1.45,1.19,1.19,0,0,0,1.52.12,1.39,1.39,0,0,0,.23-1.37,2.4,2.4,0,0,1-.11-1.42c.15-.37.49-.63.67-1a1.71,1.71,0,0,0,.16-.7c0-1.05-1.35-3.25-2.71-2.4S254.43,259.66,254.66,260.79Z" transform="translate(-10.61 -5.13)" fill="#6872fd"/><path d="M274,236.11l.51.83a11.27,11.27,0,0,1,1.13,2.54,14.82,14.82,0,0,0,1.77,3,4.24,4.24,0,0,1,.89,2.22,4.69,4.69,0,0,1-1.06,2.39,21.36,21.36,0,0,0-1.78,3.29c-.43,1-.76,2.25-.08,3.13s2.45.93,3.49.19a6.91,6.91,0,0,0,2.09-3.05c.88-2,1.77-4,1.58-6.16a12.72,12.72,0,0,0-1-3.36,27,27,0,0,0-3.31-6.81c-1.3-1.71-4.34-2.58-6.44-3.2A11.73,11.73,0,0,0,274,236.11Z" transform="translate(-10.61 -5.13)" fill="#6872fd"/><path d="M275.34,253.18a1.58,1.58,0,0,0-1,1.25c0,.64.67,1.17.6,1.81,0,.31-.24.59-.22.91a.88.88,0,0,0,.95.67,1.84,1.84,0,0,0,1.13-.57,3.9,3.9,0,0,0,1.18-3.62C277.61,251.85,276.55,252.56,275.34,253.18Z" transform="translate(-10.61 -5.13)" fill="#6872fd"/><path d="M259.05,257.5q.27,5.56.62,11.13a20.58,20.58,0,0,0,.56,4.29,43.63,43.63,0,0,0,1.9,4.73,20.7,20.7,0,0,1,1.49,7.91,2.66,2.66,0,0,1-.28,1.39c-.21.35-.58.63-.68,1-.18.7.62,1.34,1.37,1.33a3.69,3.69,0,0,0,2-.88,6.58,6.58,0,0,0,1.33-1.19,4.81,4.81,0,0,0,.78-3.82,28.13,28.13,0,0,0-1.15-3.84A19.85,19.85,0,0,1,269.35,263a181.63,181.63,0,0,1-.76,29.22,3.72,3.72,0,0,0,.05,1.56,1.36,1.36,0,0,0,1.17,1,2.12,2.12,0,0,0,1.05-.35l2.07-1.16a1.94,1.94,0,0,0,.79-.65c.31-.56-.06-1.22-.24-1.83a6,6,0,0,1-.1-2l2.14-32.09a6.2,6.2,0,0,0-.11-2.15,4.49,4.49,0,0,0-3.28-2.8,12.15,12.15,0,0,0-4.58-.08c-2.09.26-4.89.41-6.8,1.32C259,253.74,259,255.83,259.05,257.5Z" transform="translate(-10.61 -5.13)" fill="#6872fd"/><path d="M259.05,257.5q.27,5.56.62,11.13a20.58,20.58,0,0,0,.56,4.29,43.63,43.63,0,0,0,1.9,4.73,20.7,20.7,0,0,1,1.49,7.91,2.66,2.66,0,0,1-.28,1.39c-.21.35-.58.63-.68,1-.18.7.62,1.34,1.37,1.33a3.69,3.69,0,0,0,2-.88,6.58,6.58,0,0,0,1.33-1.19,4.81,4.81,0,0,0,.78-3.82,28.13,28.13,0,0,0-1.15-3.84A19.85,19.85,0,0,1,269.35,263a181.63,181.63,0,0,1-.76,29.22,3.72,3.72,0,0,0,.05,1.56,1.36,1.36,0,0,0,1.17,1,2.12,2.12,0,0,0,1.05-.35l2.07-1.16a1.94,1.94,0,0,0,.79-.65c.31-.56-.06-1.22-.24-1.83a6,6,0,0,1-.1-2l2.14-32.09a6.2,6.2,0,0,0-.11-2.15,4.49,4.49,0,0,0-3.28-2.8,12.15,12.15,0,0,0-4.58-.08c-2.09.26-4.89.41-6.8,1.32C259,253.74,259,255.83,259.05,257.5Z" transform="translate(-10.61 -5.13)" fill="url(#linear-gradient-18)"/><path d="M259.65,248.26c.24,1.59.66,3.31,2,4.29a7,7,0,0,0,3.66,1c2,.15,4.21.18,6-.83,2.43-1.39,3.29-4.31,3.62-7a34.18,34.18,0,0,0-.5-11.5c-1.11-5.12-8.43-4.31-12.34-2.69C257.29,233.5,259,244.23,259.65,248.26Z" transform="translate(-10.61 -5.13)" fill="#6872fd"/><g opacity="0.58"><path d="M255.89,243.49l-1.75,7.4c-.46,2-.76,4.45.94,5.69a1.85,1.85,0,0,0,2,.19,2.28,2.28,0,0,0,.76-1.67l.54-3.53a25.28,25.28,0,0,1,.94-4.46c.41-1.22,1-2.38,1.45-3.59.58-1.6,2.45-8.4-.77-8.41C257.24,235.11,256.34,241.62,255.89,243.49Z" transform="translate(-10.61 -5.13)" fill="url(#linear-gradient-19)"/><path d="M254.66,260.79a2.61,2.61,0,0,0,.68,1.45,1.19,1.19,0,0,0,1.52.12,1.39,1.39,0,0,0,.23-1.37,2.4,2.4,0,0,1-.11-1.42c.15-.37.49-.63.67-1a1.71,1.71,0,0,0,.16-.7c0-1.05-1.35-3.25-2.71-2.4S254.43,259.66,254.66,260.79Z" transform="translate(-10.61 -5.13)" fill="url(#linear-gradient-20)"/><path d="M275.34,253.18a1.58,1.58,0,0,0-1,1.25c0,.64.67,1.17.6,1.81,0,.31-.24.59-.22.91a.88.88,0,0,0,.95.67,1.84,1.84,0,0,0,1.13-.57,3.9,3.9,0,0,0,1.18-3.62C277.61,251.85,276.55,252.56,275.34,253.18Z" transform="translate(-10.61 -5.13)" fill="url(#linear-gradient-21)"/><path d="M280.79,250.77a7,7,0,0,1-2.09,3.06c-1.05.73-2.74.81-3.49-.19s-.36-2.13.08-3.13a20.91,20.91,0,0,1,1.78-3.29,4.73,4.73,0,0,0,1.06-2.39,4.26,4.26,0,0,0-.89-2.22c-.67-1-1.28-2.05-2-3l-.53-.79a33.67,33.67,0,0,1-.16,6.88c-.33,2.67-1.19,5.59-3.62,7-1.74,1-3.92,1-6,.83a6.93,6.93,0,0,1-3.65-1c-1.34-1-1.76-2.69-2-4.28-.63-4-2.37-14.75,2.39-16.72,3.12-1.29,8.43-2.07,11,.29l.06,0a1.3,1.3,0,0,1,.59,0c4.86.65,6.56,5.8,8,9.56a12.31,12.31,0,0,1,1,3.36C282.55,246.74,281.66,248.81,280.79,250.77Z" transform="translate(-10.61 -5.13)" fill="url(#linear-gradient-22)"/></g><path d="M263.08,232.54l-1.21-1.25a1.72,1.72,0,0,0-.52-.41,1.9,1.9,0,0,0-1.72.44,1.33,1.33,0,0,0-.53.55c-.17.47.3.91.49,1.38.42,1-.41,2-1,2.92-1.17,2-1.08,4.44-1,6.74l.38,7a6.31,6.31,0,0,0,1.15,4,5.79,5.79,0,0,0,3.36,1.59,32.47,32.47,0,0,0,7.76.21,5.94,5.94,0,0,0,2.62-.53,3.78,3.78,0,0,0,1.7-2.45,13.57,13.57,0,0,0,.24-3c.1-4.25,1.12-8.49.58-12.71-.15-1.19-.41-2.49.22-3.54a3.11,3.11,0,0,0,.47-.83c.18-.68-.41-1.32-1-1.67a2.32,2.32,0,0,0-2.7.07,2.94,2.94,0,0,1-.39.4c-.53.36-1.24-.07-1.81-.39-1.73-1-3.89-.94-5.92-.85a4.23,4.23,0,0,0-1.28.2,1.26,1.26,0,0,0-.82.9" transform="translate(-10.61 -5.13)" fill="#6872fd"/><path d="M263.08,232.54l-1.21-1.25a1.72,1.72,0,0,0-.52-.41,1.9,1.9,0,0,0-1.72.44,1.33,1.33,0,0,0-.53.55c-.17.47.3.91.49,1.38.42,1-.41,2-1,2.92-1.17,2-1.08,4.44-1,6.74l.38,7a6.31,6.31,0,0,0,1.15,4,5.79,5.79,0,0,0,3.36,1.59,32.47,32.47,0,0,0,7.76.21,5.94,5.94,0,0,0,2.62-.53,3.78,3.78,0,0,0,1.7-2.45,13.57,13.57,0,0,0,.24-3c.1-4.25,1.12-8.49.58-12.71-.15-1.19-.41-2.49.22-3.54a3.11,3.11,0,0,0,.47-.83c.18-.68-.41-1.32-1-1.67a2.32,2.32,0,0,0-2.7.07,2.94,2.94,0,0,1-.39.4c-.53.36-1.24-.07-1.81-.39-1.73-1-3.89-.94-5.92-.85a4.23,4.23,0,0,0-1.28.2,1.26,1.26,0,0,0-.82.9" transform="translate(-10.61 -5.13)" opacity="0.58" fill="url(#linear-gradient-23)"/><path d="M272.06,241.6a13.79,13.79,0,0,0-.11-4.16,4.13,4.13,0,0,0-2.72-3.05c-1.43-.38-2.92.26-4.39.36a10.42,10.42,0,0,0-3.32.29c-1.72.74-2.1,2.87-2.17,4.66a65.34,65.34,0,0,0,.76,12.57,4.28,4.28,0,0,0,.48,1.57,3.6,3.6,0,0,0,1.78,1.31c2.45,1,9,2,10.05-1.3.5-1.55-.13-3.54-.27-5.09A45.05,45.05,0,0,1,272.06,241.6Z" transform="translate(-10.61 -5.13)" opacity="0.58" fill="url(#linear-gradient-24)"/><path d="M263.25,283.66a.67.67,0,0,0-.21.36.9.9,0,0,0,.13.42,2.71,2.71,0,0,1-.87,2.85,5.14,5.14,0,0,0-.66.74,1,1,0,0,0-.1.93,1.37,1.37,0,0,0,.36.4,2.5,2.5,0,0,0,1,.61,2.42,2.42,0,0,0,1.67-.31,12,12,0,0,0,2.7-1.79,4.09,4.09,0,0,0,1.33-1.85c.26-.95.28-3.38-1-3.6A5.83,5.83,0,0,0,263.25,283.66Z" transform="translate(-10.61 -5.13)" fill="#6872fd"/><path d="M269,286.67a.87.87,0,0,0-.53.15.82.82,0,0,0-.23.66l-.22,5.64a1.94,1.94,0,0,0,.06.72,1.38,1.38,0,0,0,1,.8,3.82,3.82,0,0,0,1.39,0c.93-.1,1.85-.24,2.77-.42a2.21,2.21,0,0,0,1.12-.44,1.65,1.65,0,0,0,.24-1.79,15.06,15.06,0,0,1-.74-1.77c-.2-1,.67-3.05-.37-3.68-.46-.28-1.26-.1-1.76-.07Z" transform="translate(-10.61 -5.13)" fill="#6872fd"/><path d="M263.25,283.66a.67.67,0,0,0-.21.36.9.9,0,0,0,.13.42,2.71,2.71,0,0,1-.87,2.85,5.14,5.14,0,0,0-.66.74,1,1,0,0,0-.1.93,1.37,1.37,0,0,0,.36.4,2.5,2.5,0,0,0,1,.61,2.42,2.42,0,0,0,1.67-.31,12,12,0,0,0,2.7-1.79,4.09,4.09,0,0,0,1.33-1.85c.26-.95.28-3.38-1-3.6A5.83,5.83,0,0,0,263.25,283.66Z" transform="translate(-10.61 -5.13)" fill="url(#linear-gradient-25)"/><path d="M269,286.67a.87.87,0,0,0-.53.15.82.82,0,0,0-.23.66l-.22,5.64a1.94,1.94,0,0,0,.06.72,1.38,1.38,0,0,0,1,.8,3.82,3.82,0,0,0,1.39,0c.93-.1,1.85-.24,2.77-.42a2.21,2.21,0,0,0,1.12-.44,1.65,1.65,0,0,0,.24-1.79,15.06,15.06,0,0,1-.74-1.77c-.2-1,.67-3.05-.37-3.68-.46-.28-1.26-.1-1.76-.07Z" transform="translate(-10.61 -5.13)" fill="url(#linear-gradient-26)"/></svg>